<?xml version="1.0" encoding="UTF-8"?><svg xmlns:xlink="http://www.w3.org/1999/xlink" xmlns="http://www.w3.org/2000/svg" version="1.2" viewBox="0.0 0.0 224.11286089238845 191.18635170603673" fill="none" stroke="none" stroke-linecap="square" stroke-miterlimit="10" baseProfile="tiny-ps"><title>Pathway Analytics</title><g><path fill="#000000" fill-opacity="0.0" d="m0 0l224.11285 0l0 191.18636l-224.11285 0z" fill-rule="evenodd"></path><g><use transform="matrix(1.0 0.0 0.0 1.0 0.0 2.0)"></use></g><g id="p.1"><path fill="#1c407b" d="m0 23.320055l0 0c0 -12.879311 10.440744 -23.320055 23.320055 -23.320055l176.35202 0c6.18486 0 12.116409 2.4569273 16.489761 6.830286c4.3733673 4.3733587 6.8302917 10.304907 6.8302917 16.489769l0 145.73784c0 12.879318 -10.44075 23.320068 -23.320053 23.320068l-176.35202 0c-12.879311 0 -23.320055 -10.44075 -23.320055 -23.320068z" fill-rule="evenodd"></path><path stroke="#000000" stroke-width="1.0" stroke-linejoin="round" stroke-linecap="butt" d="m0 23.320055l0 0c0 -12.879311 10.440744 -23.320055 23.320055 -23.320055l176.35202 0c6.18486 0 12.116409 2.4569273 16.489761 6.830286c4.3733673 4.3733587 6.8302917 10.304907 6.8302917 16.489769l0 145.73784c0 12.879318 -10.44075 23.320068 -23.320053 23.320068l-176.35202 0c-12.879311 0 -23.320055 -10.44075 -23.320055 -23.320068z" fill-rule="evenodd"></path><path fill="#1c407b" d="m33.09914 16.188984l156.79385 0l0 159.99998l-156.79385 0l0 -159.99998z" fill-rule="nonzero"></path><path fill="#000000" fill-opacity="0.0" d="m33.09914 9.39416l156.79385 0l0 181.85966l-156.79385 0l0 -181.85966z" fill-rule="nonzero"></path><path fill="#efefef" d="m51.896015 145.25148q-4.125 0 -6.328125 -2.328125q-2.203125 -2.328125 -2.203125 -6.46875l0 -77.59375q0 -4.265625 2.265625 -6.46875q2.265625 -2.203125 6.40625 -2.203125l32.124996 0q15.46875 0 23.859375 7.734375q8.40625 7.734371 8.40625 21.593746q0 13.875 -8.40625 21.671875q-8.390625 7.796875 -23.859375 7.796875l-23.734371 0l0 27.468758q0 4.140625 -2.140625 6.46875q-2.125 2.328125 -6.390625 2.328125zm8.53125 -49.734383l21.062496 0q9.078125 0 13.734375 -4.0625q4.671875 -4.0625 4.671875 -11.9375q0 -7.859375 -4.671875 -11.859375q-4.65625 -3.9999962 -13.734375 -3.9999962l-21.062496 0l0 31.859371zm86.66022 50.000008q-7.0625 0 -12.593765 -2.734375q-5.53125 -2.734375 -8.671875 -7.390625q-3.125 -4.671875 -3.125 -10.531258q0 -7.203125 3.734375 -11.40625q3.734375 -4.203125 12.125015 -6.0625q8.40625 -1.875 22.53125 -1.875l6.671875 0l0 9.609375l-6.53125 0q-8.265625 0 -13.203125 0.796875q-4.9375 0.796875 -7.0 2.734375q-2.0625 1.9375 -2.0625 5.40625q0 4.3906326 3.0625 7.1875076q3.0625 2.796875 8.53125 2.796875q4.40625 0 7.796875 -2.0625q3.40625 -2.0625 5.40625 -5.6562576q2.0 -3.609375 2.0 -8.265625l0 -15.34375q0 -6.65625 -2.9375 -9.59375q-2.921875 -2.9375 -9.859375 -2.9375q-3.875 0 -8.34375 0.9375q-4.453125 0.9375 -9.390625 3.203125q-2.5312653 1.1875 -4.4687653 0.65625q-1.9375 -0.53125 -3.0 -2.1875q-1.0625 -1.671875 -1.0625 -3.671875q0 -2.0 1.0625 -3.9375q1.0625 -1.9375 3.609375 -2.859375q6.1250153 -2.53125 11.781265 -3.59375q5.671875 -1.078125 10.34375 -1.078125q9.59375 0 15.796875 2.9375q6.203125 2.921875 9.265625 8.859375q3.078125 5.9375 3.078125 15.265625l0 32.000008q0 4.140625 -2.0 6.34375q-2.0 2.1875 -5.734375 2.1875q-3.734375 0 -5.8125 -2.1875q-2.0625 -2.203125 -2.0625 -6.34375l0 -6.390625l1.0625 0q-0.921875 4.65625 -3.65625 8.0625q-2.734375 3.390625 -6.875 5.265625q-4.125 1.859375 -9.46875 1.859375z" fill-rule="nonzero"></path><path fill="#010000" fill-opacity="0.0" d="m189.89299 9.39416l0 0l0 181.85966l0 0l0 -181.85966z" fill-rule="nonzero"></path></g></g></svg>